<svg width="32" height="32" viewBox="0 0 32 32" fill="none" xmlns="http://www.w3.org/2000/svg">
<path fill-rule="evenodd" clip-rule="evenodd" d="M20.7728 9.14867C21.1633 8.75814 21.7965 8.75814 22.187 9.14867L23.6012 10.5629C23.9918 10.9534 23.9918 11.5866 23.6012 11.9771L22.187 13.3913L19.3586 10.563L18.6515 11.2701L21.4799 14.0984L13.2087 22.3696L9.67319 23.0767L10.3803 19.5412L20.7728 9.14867ZM9.46073 24.139L13.7017 23.2908L24.3083 12.6842C25.0894 11.9032 25.0894 10.6368 24.3083 9.85577L22.8941 8.44156C22.1131 7.66051 20.8467 7.66051 20.0657 8.44156L9.4591 19.0482L8.6109 23.2892L8.39844 24.3515L9.46073 24.139Z" fill="#6D6D6D"/>
</svg>
